<?xml version="1.0" standalone="no"?>
<!DOCTYPE svg PUBLIC "-//W3C//DTD SVG 20010904//EN"
 "http://www.w3.org/TR/2001/REC-SVG-20010904/DTD/svg10.dtd">
<svg version="1.0" xmlns="http://www.w3.org/2000/svg"
 width="500.000000pt" height="500.000000pt" viewBox="0 0 500.000000 500.000000"
 preserveAspectRatio="xMidYMid meet">
<metadata>
Created by potrace 1.14, written by Peter Selinger 2001-2017
</metadata>
<g transform="translate(0.000000,500.000000) scale(0.100000,-0.100000)"
fill="#000000" stroke="none">
<path d="M1739 4824 c-1 -5 -2 -31 -4 -59 -5 -74 -14 -166 -20 -198 -3 -15
-10 -54 -15 -87 -13 -72 -69 -271 -80 -285 -5 -5 -8 -12 -9 -15 -1 -41 -110
-274 -171 -369 -22 -34 -40 -66 -40 -71 0 -6 -4 -10 -8 -10 -4 0 -15 -12 -24
-27 -44 -74 -152 -198 -302 -349 -153 -152 -210 -216 -294 -327 -65 -85 -172
-243 -172 -253 0 -4 -6 -15 -14 -23 -27 -31 -134 -248 -181 -366 -26 -66 -51
-129 -56 -140 -43 -104 -129 -448 -155 -625 -4 -25 -8 -56 -10 -70 -2 -14 -6
-47 -9 -75 -2 -27 -7 -84 -11 -125 -15 -158 -9 -508 10 -598 25 -118 108 -274
168 -316 29 -21 48 -8 102 67 83 116 183 193 312 238 45 15 91 21 199 24 147
5 238 -9 435 -64 41 -12 82 -23 90 -25 39 -10 196 -74 299 -122 136 -65 255
-103 371 -120 19 -3 46 -8 60 -10 66 -13 309 -13 377 1 78 15 190 57 240 89
30 20 32 24 28 66 -7 83 -13 91 -221 325 -44 49 -93 105 -110 123 -24 28 -34
33 -59 28 -49 -8 -76 -15 -109 -25 -96 -30 -304 -43 -436 -26 -36 4 -74 9 -85
10 -67 7 -224 60 -345 118 -253 119 -460 182 -735 221 -16 2 -34 5 -39 5 -8 1
0 96 9 111 2 4 7 21 10 39 36 208 181 526 319 703 12 14 32 41 46 59 93 123
242 290 414 464 124 126 153 160 228 270 124 180 231 430 264 613 2 12 7 34
10 50 10 48 13 246 4 292 -4 25 -11 59 -13 75 -3 17 -15 75 -26 130 -12 55
-24 111 -27 125 -12 58 -55 198 -74 245 -5 11 -19 45 -31 75 -48 124 -84 201
-96 212 -7 6 -13 7 -14 2z"/>
<path d="M2355 4670 c-3 -5 1 -29 9 -53 14 -43 24 -102 31 -198 2 -26 6 -64 9
-85 3 -22 8 -70 11 -109 7 -86 14 -144 19 -170 27 -131 42 -191 67 -277 17
-56 33 -107 37 -113 4 -5 7 -14 8 -20 1 -5 15 -55 32 -110 52 -169 111 -425
127 -553 5 -43 14 -103 19 -127 4 -20 13 -113 22 -215 12 -144 16 -373 7 -367
-6 4 -39 9 -74 11 -77 6 -120 15 -136 28 -22 18 -45 -10 -37 -45 3 -16 7 -35
8 -41 8 -45 47 -132 108 -238 38 -67 73 -125 77 -128 22 -17 32 -69 37 -185 8
-228 17 -308 45 -440 44 -201 140 -441 231 -573 26 -38 33 -43 57 -37 45 12
165 22 287 25 25 0 32 14 40 80 5 38 1 57 -19 96 -35 69 -101 239 -112 287 -2
10 -7 27 -10 37 -3 10 -8 28 -10 39 -3 12 -7 30 -10 42 -2 11 -6 28 -9 37 -6
20 -13 58 -22 127 -3 28 -8 59 -10 70 -3 11 -7 77 -10 146 l-6 125 43 13 c224
66 399 264 425 480 4 38 -6 130 -19 176 -2 6 -11 45 -21 88 -15 62 -23 77 -37
77 -11 0 -19 -6 -19 -13 0 -26 -80 -138 -143 -200 -42 -40 -83 -70 -121 -86
-31 -13 -58 -22 -60 -20 -2 2 -6 112 -10 244 -3 132 -8 254 -10 270 -2 17 -6
57 -10 90 -6 51 -42 288 -51 335 -47 235 -185 653 -272 823 -28 57 -21 55 47
-14 240 -247 341 -425 426 -749 34 -131 71 -204 136 -269 113 -113 234 -136
409 -77 117 39 183 75 187 101 2 17 -9 24 -68 44 -178 61 -300 207 -409 491
-51 131 -56 145 -56 150 -3 17 -60 194 -78 240 -40 102 -124 227 -237 353 -31
35 -127 104 -201 145 -30 17 -109 44 -175 61 -157 40 -300 92 -401 146 -92 50
-89 49 -98 35z"/>
<path d="M2170 3383 c0 -43 -21 -127 -40 -163 -19 -36 -68 -79 -147 -128 -38
-24 -77 -56 -86 -72 -23 -38 -15 -97 23 -157 16 -26 35 -59 42 -73 28 -56 61
-98 81 -104 60 -16 246 125 294 224 60 123 40 297 -50 423 -20 29 -93 87 -109
87 -4 0 -8 -17 -8 -37z"/>
<path d="M4355 2626 c-38 -12 -86 -31 -105 -41 -120 -62 -264 -194 -362 -331
-67 -93 -165 -274 -198 -365 -13 -35 -26 -68 -30 -74 -6 -8 -34 -92 -55 -165
-2 -6 -16 -75 -21 -105 -46 -248 -58 -350 -57 -495 1 -144 44 -319 90 -368 10
-10 27 -30 38 -44 102 -130 366 -157 566 -58 64 32 172 100 177 112 2 5 8 8
14 8 19 0 234 169 289 227 30 32 68 85 85 118 17 33 42 80 54 105 13 25 36 61
52 81 24 32 26 38 13 49 -32 27 -224 -11 -329 -66 -69 -36 -106 -64 -217 -165
-14 -13 -59 -53 -99 -89 -40 -36 -81 -73 -91 -83 -22 -23 -41 -14 -93 44 -39
43 -69 100 -81 156 -6 31 -4 33 102 104 189 128 319 275 441 499 22 42 50 100
62 130 11 30 25 64 30 75 17 36 61 198 68 255 26 183 -30 476 -95 501 -45 17
-174 10 -248 -15z m30 -389 c-16 -173 -29 -224 -87 -347 -27 -56 -92 -165
-108 -180 -3 -3 -18 -23 -35 -45 -33 -45 -127 -147 -131 -142 -6 6 48 215 73
282 38 101 115 254 170 337 80 119 108 156 116 151 4 -2 5 -28 2 -56z"/>
<path d="M2096 2597 c-25 -19 -35 -61 -26 -103 20 -92 27 -211 16 -264 -3 -14
-8 -43 -11 -65 -10 -88 -82 -254 -151 -351 -37 -51 -113 -131 -260 -270 -31
-29 -33 -33 -21 -63 6 -17 15 -31 19 -31 4 0 8 -4 8 -9 0 -24 184 -277 212
-292 16 -8 27 -5 59 16 61 40 180 162 240 245 70 97 71 99 124 202 106 206
131 369 90 583 -8 42 -65 187 -82 206 -7 8 -13 20 -13 25 0 16 -102 142 -131
162 -27 19 -55 22 -73 9z"/>
</g>
</svg>
